<svg width="234" height="64" viewBox="0 0 234 64" fill="none" xmlns="http://www.w3.org/2000/svg">
<rect width="64" height="64" rx="9" fill="#1078FD" fill-opacity="0.2"/>
<g clip-path="url(#clip0_30_779)">
<path fill-rule="evenodd" clip-rule="evenodd" d="M33.2035 20.3406V23.8041H42.7482C44.2948 23.8041 45.5595 25.0688 45.5595 26.6154V30.1672H49.3819C49.7209 30.1672 50 30.4435 50 30.7853V37.9858C50 38.3248 49.7237 38.6039 49.3819 38.6039H45.5595V42.1558C45.5595 43.7024 44.2948 44.967 42.7482 44.967H21.9556C20.4089 44.967 19.1443 43.7024 19.1443 42.1558V38.6039H15.6181C15.2763 38.6039 15 38.3276 15 37.9887V30.7853C15 30.4464 15.2763 30.1672 15.6181 30.1672H19.1443V26.6182C19.1443 25.0716 20.4089 23.807 21.9556 23.807H31.5002V20.3406C30.4036 19.9817 29.6147 18.9535 29.6147 17.7372C29.6147 16.2248 30.8394 15 32.3519 15C33.8643 15 35.0891 16.2248 35.0891 17.7372C35.0891 18.9535 34.2973 19.9817 33.2035 20.3406ZM26.6866 37.7124H38.3105C38.8774 37.7124 39.3416 38.1767 39.3416 38.7435V39.2277C39.3416 39.7945 38.8774 40.2588 38.3105 40.2588H26.6866C26.1198 40.2588 25.6555 39.7945 25.6555 39.2277V38.7435C25.6555 38.1738 26.1198 37.7124 26.6866 37.7124ZM37.4162 28.5551C38.9457 28.5551 40.1876 29.7941 40.1876 31.3265C40.1876 32.856 38.9486 34.0951 37.4162 34.0951C35.8838 34.0951 34.6476 32.856 34.6476 31.3265C34.6448 29.7941 35.8866 28.5551 37.4162 28.5551ZM27.5838 28.5551C29.1134 28.5551 30.3524 29.7941 30.3524 31.3265C30.3524 32.856 29.1134 34.0951 27.5838 34.0951C26.0543 34.0951 24.8153 32.856 24.8153 31.3265C24.8153 29.7941 26.0543 28.5551 27.5838 28.5551Z" fill="#1078FD"/>
</g>
<rect x="170" width="64" height="64" rx="9" fill="#1078FD" fill-opacity="0.2"/>
<g clip-path="url(#clip1_30_779)">
<path d="M195.885 29.8635C196.725 31.3258 197.693 32.7293 198.951 34.0091C200.212 35.2967 201.781 36.4686 203.811 37.4696C203.962 37.5403 204.104 37.5403 204.232 37.4912C204.426 37.4205 204.623 37.2655 204.816 37.079C204.967 36.9338 205.154 36.7021 205.349 36.4489C206.13 35.4577 207.097 34.227 208.462 34.8433C208.492 34.857 208.515 34.8727 208.545 34.8845L213.099 37.4107C213.113 37.4186 213.129 37.4323 213.141 37.4402C213.742 37.8386 213.99 38.453 213.996 39.1498C213.996 39.8584 213.725 40.6554 213.328 41.3286C212.804 42.2178 212.03 42.8067 211.139 43.1953C210.291 43.5722 209.347 43.7744 208.44 43.9039C207.015 44.1061 205.681 43.9765 204.316 43.5722C202.981 43.1737 201.636 42.5162 200.167 41.6407L200.059 41.574C199.386 41.1677 198.658 40.7339 197.944 40.2216C195.331 38.3176 192.668 35.5676 190.933 32.5409C189.478 30.0009 188.685 27.2588 189.118 24.6462C189.358 23.2133 189.995 21.91 191.106 21.0502C192.074 20.2965 193.378 19.8843 195.067 20.0295C195.26 20.0433 195.433 20.1512 195.525 20.3122L198.444 25.0741C198.871 25.608 198.924 26.138 198.69 26.6679C198.497 27.1017 198.106 27.5022 197.573 27.8751C197.417 28.0047 197.229 28.1362 197.032 28.2736C196.379 28.7309 195.636 29.2589 195.891 29.8792L195.885 29.8635Z" fill="#1078FD"/>
</g>
<rect x="85" width="64" height="64" rx="9" fill="#1078FD" fill-opacity="0.2"/>
<path d="M125.667 44H108.333L104.333 48V25.3333C104.333 23.1333 106.133 21.3333 108.333 21.3333H125.667C127.867 21.3333 129.667 23.1333 129.667 25.3333V40C129.667 42.2 127.867 44 125.667 44Z" fill="#1078FD"/>
<path d="M117 34.6667C118.105 34.6667 119 33.7713 119 32.6667C119 31.5621 118.105 30.6667 117 30.6667C115.895 30.6667 115 31.5621 115 32.6667C115 33.7713 115.895 34.6667 117 34.6667Z" fill="#031833"/>
<path d="M123.667 34.6667C124.771 34.6667 125.667 33.7713 125.667 32.6667C125.667 31.5621 124.771 30.6667 123.667 30.6667C122.562 30.6667 121.667 31.5621 121.667 32.6667C121.667 33.7713 122.562 34.6667 123.667 34.6667Z" fill="#031833"/>
<path d="M110.333 34.6667C111.438 34.6667 112.333 33.7713 112.333 32.6667C112.333 31.5621 111.438 30.6667 110.333 30.6667C109.229 30.6667 108.333 31.5621 108.333 32.6667C108.333 33.7713 109.229 34.6667 110.333 34.6667Z" fill="#031833"/>
<defs>
<clipPath id="clip0_30_779">
<rect width="35" height="29.967" fill="white" transform="translate(15 15)"/>
</clipPath>
<clipPath id="clip1_30_779">
<rect width="25" height="24" fill="white" transform="translate(189 20)"/>
</clipPath>
</defs>
</svg>
