<svg width="234" height="64" viewBox="0 0 234 64" fill="none" xmlns="http://www.w3.org/2000/svg">
<rect width="64" height="64" rx="9" fill="#FF9500" fill-opacity="0.2"/>
<path d="M47.02 31.8438C47.02 30.7713 46.9238 29.74 46.745 28.75H32.5V34.6075H40.64C40.2825 36.4913 39.21 38.0862 37.6013 39.1587V42.9675H42.51C45.37 40.3275 47.02 36.45 47.02 31.8438Z" fill="#FF9500"/>
<path d="M32.5001 46.625C36.5838 46.625 40.0076 45.2775 42.5101 42.9675L37.6013 39.1588C36.2538 40.0663 34.5351 40.6163 32.5001 40.6163C28.5676 40.6163 25.2263 37.9625 24.0301 34.3875H18.9976V38.2925C21.4863 43.2288 26.5876 46.625 32.5001 46.625Z" fill="#FF9500"/>
<path d="M24.03 34.3738C23.7275 33.4663 23.5487 32.5038 23.5487 31.5C23.5487 30.4963 23.7275 29.5338 24.03 28.6263V24.7213H18.9975C17.9663 26.7563 17.375 29.0525 17.375 31.5C17.375 33.9475 17.9663 36.2438 18.9975 38.2788L22.9163 35.2263L24.03 34.3738Z" fill="#FF9500"/>
<path d="M32.5001 22.3975C34.7276 22.3975 36.7076 23.1675 38.2888 24.6525L42.6201 20.3212C39.9938 17.8737 36.5838 16.375 32.5001 16.375C26.5876 16.375 21.4863 19.7713 18.9976 24.7213L24.0301 28.6262C25.2263 25.0512 28.5676 22.3975 32.5001 22.3975Z" fill="#FF9500"/>
<rect x="170" width="64" height="64" rx="9" fill="#FF9500" fill-opacity="0.2"/>
<path d="M188.567 25.3444C192.504 29.4679 198.052 31.8511 203.951 31.8353C208.606 31.8196 213.022 30.2989 216.625 27.5081L215.716 25.7521C212.432 28.4488 208.303 29.9225 203.951 29.9383C198.307 29.9539 193.03 27.5394 189.459 23.4003L188.567 25.3444ZM186.861 34.2969C195.151 41.2582 207.012 42.5595 216.577 37.6365L216.529 35.4884C207.235 40.7721 195.358 39.4551 187.339 32.1646L186.861 34.2969ZM194.768 45.0681L197.048 45.5855C195.98 43.0613 195.406 40.3959 195.358 37.6521C194.912 29.8599 198.323 22.4282 204.413 17.5208L202.373 16.7369C196.33 22.0049 192.999 29.6718 193.429 37.6834C193.461 40.192 193.923 42.6693 194.768 45.0681ZM205.274 46.6202L207.075 45.8363C204.094 41.6971 202.468 36.7898 202.468 31.6628C202.468 26.8025 203.903 22.1617 206.597 18.2107L204.716 17.5522C201.99 21.754 200.539 26.6301 200.539 31.6628C200.539 37.072 202.197 42.2303 205.274 46.6202ZM214.664 40.7878L215.955 39.3454C210.599 36.3194 207.251 30.7849 207.171 24.6389C207.139 22.4439 207.538 20.2646 208.335 18.2577L206.47 17.7403C205.625 19.9353 205.21 22.2557 205.242 24.6546C205.322 31.3179 208.909 37.4013 214.664 40.7878ZM195.342 31.6472C196.697 31.6472 197.813 30.5341 197.813 29.1857C197.813 27.8373 196.697 26.7398 195.342 26.7398C193.955 26.7398 192.839 27.8373 192.839 29.1857C192.839 30.5341 193.955 31.6472 195.342 31.6472ZM207.554 32.9486C208.893 32.9486 209.993 31.8667 209.993 30.5184C209.993 29.2014 208.893 28.1195 207.554 28.1195C206.183 28.1195 205.083 29.2014 205.083 30.5184C205.083 31.8667 206.183 32.9486 207.554 32.9486ZM202.803 42.0107C204.174 42.0107 205.274 40.9289 205.274 39.5649C205.274 38.2166 204.174 37.1191 202.803 37.1191C201.416 37.1191 200.3 38.2166 200.3 39.5649C200.3 40.9289 201.416 42.0107 202.803 42.0107ZM202.261 47.9842C211.157 47.9842 218.522 40.7251 218.522 31.9921C218.522 23.2435 211.141 16 202.245 16C193.365 16 186 23.2435 186 31.9921C186 40.7251 193.381 47.9842 202.261 47.9842ZM202.261 45.852C194.561 45.852 188.168 39.5649 188.168 31.9921C188.168 24.4194 194.545 18.1323 202.245 18.1323C209.945 18.1323 216.354 24.4194 216.354 31.9921C216.354 39.5649 209.961 45.852 202.261 45.852Z" fill="#FF9500"/>
<rect x="85" width="64" height="64" rx="9" fill="#FF9500" fill-opacity="0.2"/>
<path d="M118 50.5114C127.847 50.5114 136 42.2249 136 32.2557C136 22.2688 127.83 14 117.982 14C108.153 14 100 22.2688 100 32.2557C100 42.2249 108.171 50.5114 118 50.5114ZM118 47.469C109.671 47.469 103.018 40.7036 103.018 32.2557C103.018 23.808 109.653 17.0426 117.982 17.0426C126.312 17.0426 133 23.808 133 32.2557C133 40.7036 126.33 47.469 118 47.469Z" fill="#FF9500"/>
<path d="M116.076 37.643C120.118 37.643 123.418 34.2962 123.418 30.1975C123.418 26.0989 120.118 22.752 116.076 22.752C112.035 22.752 108.735 26.1168 108.735 30.1975C108.735 34.2781 112.035 37.643 116.076 37.643ZM116.076 35.2089C113.376 35.2089 111.135 32.9358 111.135 30.1975C111.135 27.4591 113.376 25.1861 116.076 25.1861C118.776 25.1861 121 27.4412 121 30.1975C121 32.9358 118.776 35.2089 116.076 35.2089ZM125.747 41.5984C126.594 41.5984 127.176 40.972 127.176 40.0771C127.176 39.6655 126.982 39.2896 126.7 38.9854L121.123 33.2938L118.864 35.37L124.494 41.0615C124.847 41.4372 125.235 41.5984 125.747 41.5984Z" fill="#FF9500"/>
</svg>
